<svg viewBox="0 0 1200 600" xmlns="http://www.w3.org/2000/svg" font-family="Inter, 'Segoe UI', Arial, sans-serif">
  <defs>
    <linearGradient id="bg" x1="0" y1="0" x2="1" y2="1">
      <stop offset="0" stop-color="#0B1120"/>
      <stop offset="0.55" stop-color="#111A2E"/>
      <stop offset="1" stop-color="#0A0F1C"/>
    </linearGradient>
    <linearGradient id="up" x1="0" y1="1" x2="1" y2="0">
      <stop offset="0" stop-color="#22D3EE"/>
      <stop offset="1" stop-color="#4ADE80"/>
    </linearGradient>
    <linearGradient id="down" x1="0" y1="0" x2="1" y2="1">
      <stop offset="0" stop-color="#F87171"/>
      <stop offset="1" stop-color="#EF4444"/>
    </linearGradient>
  </defs>
  <rect width="1200" height="600" fill="url(#bg)"/>
  <text x="80" y="92" fill="#22D3EE" font-size="20" font-weight="700" letter-spacing="3">KIẾN THỨC NỀN TẢNG</text>
  <g transform="translate(80,110)">
    <rect x="0" y="0" width="210" height="34" rx="17" fill="#0F172A" stroke="#22D3EE" stroke-width="1.5"/>
    <text x="105" y="23" fill="#7DD3FC" font-size="15" font-weight="700" letter-spacing="1.5" text-anchor="middle">SERIES &#183; PHẦN 5</text>
  </g>
  <text x="80" y="216" fill="#F1F5F9" font-size="48" font-weight="800">Định luật Goodhart &amp; guardrail</text>
  <text x="80" y="268" fill="#94A3B8" font-size="25" font-weight="500">Ép một con số lên thường phá một con số khác —</text>
  <text x="80" y="302" fill="#94A3B8" font-size="25" font-weight="500">đặt lan can trước khi đạp ga.</text>
  <g transform="translate(80,350)">
    <line x1="0" y1="0" x2="0" y2="180" stroke="#334155" stroke-width="2"/>
    <line x1="0" y1="180" x2="1040" y2="180" stroke="#334155" stroke-width="2"/>
    <line x1="0" y1="95" x2="1040" y2="95" stroke="#34D399" stroke-width="2.5" stroke-dasharray="8 6"/>
    <text x="14" y="86" fill="#34D399" font-size="15" font-weight="700" letter-spacing="1">GUARDRAIL &#183; ngưỡng không được phá</text>
    <path d="M20 150 C 300 110, 600 60, 1010 24" fill="none" stroke="url(#up)" stroke-width="6"/>
    <circle cx="1010" cy="24" r="7" fill="#4ADE80"/>
    <text x="700" y="18" fill="#4ADE80" font-size="18" font-weight="700">KPI mục tiêu &#8593;</text>
    <path d="M20 60 C 300 100, 600 140, 1010 168" fill="none" stroke="url(#down)" stroke-width="6"/>
    <circle cx="1010" cy="168" r="7" fill="#EF4444"/>
    <text x="640" y="160" fill="#F87171" font-size="18" font-weight="700">chỉ số bị bỏ quên &#8595;</text>
  </g>
  <text x="80" y="568" fill="#475569" font-size="18" font-weight="700" letter-spacing="2">SEMANTIX • BLOG</text>
</svg>
