<svg viewBox="0 0 1200 600" xmlns="http://www.w3.org/2000/svg" font-family="Inter, 'Segoe UI', Arial, sans-serif">
  <defs>
    <linearGradient id="bg" x1="0" y1="0" x2="1" y2="1">
      <stop offset="0" stop-color="#0B1120"/>
      <stop offset="0.55" stop-color="#111A2E"/>
      <stop offset="1" stop-color="#0A0F1C"/>
    </linearGradient>
    <linearGradient id="shine" x1="0" y1="0" x2="1" y2="1">
      <stop offset="0" stop-color="#FDE68A"/>
      <stop offset="1" stop-color="#F59E0B"/>
    </linearGradient>
    <linearGradient id="real" x1="0" y1="0" x2="1" y2="1">
      <stop offset="0" stop-color="#4ADE80"/>
      <stop offset="1" stop-color="#22D3EE"/>
    </linearGradient>
  </defs>
  <rect width="1200" height="600" fill="url(#bg)"/>
  <text x="80" y="92" fill="#22D3EE" font-size="20" font-weight="700" letter-spacing="3">PHÂN TÍCH DỮ LIỆU</text>
  <text x="80" y="160" fill="#F1F5F9" font-size="48" font-weight="800">Vanity metrics</text>
  <text x="80" y="212" fill="#94A3B8" font-size="26" font-weight="500">Những con số đẹp nhất thường dẫn tới</text>
  <text x="80" y="246" fill="#94A3B8" font-size="26" font-weight="500">quyết định tệ nhất</text>
  <g transform="translate(80,310)">
    <rect x="0" y="0" width="460" height="210" rx="14" fill="#0F172A" stroke="#3F2D08" stroke-width="2"/>
    <text x="24" y="40" fill="#F59E0B" font-size="15" font-weight="700" letter-spacing="1">SỐ TO LẤP LÁNH</text>
    <text x="24" y="118" fill="url(#shine)" font-size="64" font-weight="800">2.450.000</text>
    <text x="24" y="150" fill="#92722A" font-size="18" font-weight="600">lượt xem &amp; followers</text>
    <g transform="translate(360,60)">
      <path d="M0 -34 L9 -11 L34 -11 L14 4 L21 28 L0 13 L-21 28 L-14 4 L-34 -11 L-9 -11 Z" fill="url(#shine)" opacity="0.95"/>
    </g>
    <g transform="translate(410,150)" opacity="0.7">
      <path d="M0 -16 L4 -5 L16 -5 L6 2 L10 14 L0 6 L-10 14 L-6 2 L-16 -5 L-4 -5 Z" fill="#FDE68A"/>
    </g>
  </g>
  <g transform="translate(660,310)">
    <rect x="0" y="0" width="460" height="210" rx="14" fill="#0F172A" stroke="#164E45" stroke-width="2"/>
    <text x="24" y="40" fill="#34D399" font-size="15" font-weight="700" letter-spacing="1">SỐ NHỎ MÀ THẬT</text>
    <text x="24" y="118" fill="url(#real)" font-size="64" font-weight="800">38</text>
    <text x="24" y="150" fill="#2F6B5E" font-size="18" font-weight="600">khách mua &amp; lợi nhuận thật</text>
    <g transform="translate(330,140)">
      <line x1="0" y1="0" x2="100" y2="-46" stroke="#22D3EE" stroke-width="3"/>
      <circle cx="0" cy="0" r="5" fill="#34D399"/>
      <circle cx="50" cy="-20" r="5" fill="#34D399"/>
      <circle cx="100" cy="-46" r="6" fill="#22D3EE"/>
    </g>
  </g>
  <text x="80" y="568" fill="#475569" font-size="18" font-weight="700" letter-spacing="2">SEMANTIX • BLOG</text>
</svg>
