<svg viewBox="0 0 1200 600" xmlns="http://www.w3.org/2000/svg" font-family="Inter, 'Segoe UI', Arial, sans-serif">
  <defs>
    <linearGradient id="bg10" x1="0" y1="0" x2="1" y2="1">
      <stop offset="0" stop-color="#0F172A"/><stop offset="0.6" stop-color="#1E1B4B"/><stop offset="1" stop-color="#0F172A"/>
    </linearGradient>
  </defs>
  <rect width="1200" height="600" fill="url(#bg10)"/>
  <g stroke="#312E81" stroke-width="1" opacity="0.35">
    <line x1="0" y1="150" x2="1200" y2="150"/><line x1="0" y1="300" x2="1200" y2="300"/><line x1="0" y1="450" x2="1200" y2="450"/>
  </g>
  <text x="80" y="140" fill="#818CF8" font-size="22" font-weight="700" letter-spacing="3">SO SÁNH &amp; LỰA CHỌN</text>
  <text x="80" y="232" fill="#ffffff" font-size="48" font-weight="800">Semantix vs ThoughtSpot</text>
  <text x="80" y="300" fill="#CBD5E1" font-size="28" font-weight="600">Cùng triết lý AI — khác giá &amp; chủ quyền dữ liệu</text>
  <text x="80" y="520" fill="#64748B" font-size="20" font-weight="700" letter-spacing="2">SEMANTIX • BLOG</text>
  <!-- motif: 2x2 positioning -->
  <g transform="translate(800,150)">
    <line x1="0" y1="140" x2="280" y2="140" stroke="#475569" stroke-width="2"/>
    <line x1="140" y1="0" x2="140" y2="280" stroke="#475569" stroke-width="2"/>
    <text x="-6" y="-8" fill="#64748B" font-size="13">AI cao</text>
    <text x="250" y="160" fill="#64748B" font-size="13">hợp túi tiền →</text>
    <circle cx="60" cy="50" r="9" fill="#F87171"/><text x="-26" y="44" fill="#FCA5A5" font-size="13">ThoughtSpot</text>
    <circle cx="70" cy="210" r="9" fill="#94A3B8"/><text x="6" y="236" fill="#94A3B8" font-size="13">Power BI</text>
    <circle cx="210" cy="205" r="9" fill="#94A3B8"/><text x="176" y="232" fill="#94A3B8" font-size="13">Metabase</text>
    <circle cx="215" cy="55" r="13" fill="#4ADE80"/><text x="200" y="40" fill="#86EFAC" font-size="14" font-weight="800">Semantix</text>
  </g>
</svg>
