<svg viewBox="0 0 1200 600" xmlns="http://www.w3.org/2000/svg" font-family="Inter, 'Segoe UI', Arial, sans-serif">
  <defs>
    <linearGradient id="bghd019" x1="0" y1="0" x2="1" y2="1">
      <stop offset="0" stop-color="#0F172A"/>
      <stop offset="0.6" stop-color="#1E1B4B"/>
      <stop offset="1" stop-color="#0F172A"/>
    </linearGradient>
    <marker id="arrhd019" markerWidth="10" markerHeight="10" refX="6" refY="3" orient="auto">
      <path d="M0 0 L6 3 L0 6 Z" fill="#818CF8"/>
    </marker>
  </defs>
  <rect width="1200" height="600" fill="url(#bghd019)"/>
  <g stroke="#312E81" stroke-width="1" opacity="0.35">
    <line x1="0" y1="150" x2="1200" y2="150"/>
    <line x1="0" y1="300" x2="1200" y2="300"/>
    <line x1="0" y1="450" x2="1200" y2="450"/>
  </g>
  <text x="80" y="140" fill="#818CF8" font-size="22" font-weight="700" letter-spacing="3">HƯỚNG DẪN THỰC CHIẾN</text>
  <text x="80" y="232" fill="#ffffff" font-size="54" font-weight="800">Xuất PowerPoint 1-click</text>
  <text x="80" y="298" fill="#CBD5E1" font-size="30" font-weight="600">Dashboard &amp; biểu đồ → bộ slide họp</text>
  <text x="80" y="520" fill="#64748B" font-size="20" font-weight="700" letter-spacing="2">SEMANTIX • BLOG</text>
  <g transform="translate(700,260) scale(0.986)">
    <rect x="0" y="40" width="190" height="220" rx="14" fill="#0B1220" stroke="#334155" stroke-width="2"/>
    <text x="16" y="32" fill="#94A3B8" font-size="16" font-weight="600">Dashboard</text>
    <rect x="18" y="58" width="154" height="40" rx="6" fill="#1E293B"/>
    <text x="30" y="84" fill="#4ADE80" font-size="22" font-weight="700">1,87 tỷ</text>
    <g transform="translate(18,118)">
      <rect x="0" y="60" width="20" height="22" rx="2" fill="#475569"/>
      <rect x="28" y="44" width="20" height="38" rx="2" fill="#64748B"/>
      <rect x="56" y="24" width="20" height="58" rx="2" fill="#818CF8"/>
      <rect x="84" y="36" width="20" height="46" rx="2" fill="#7DD3FC"/>
      <rect x="112" y="14" width="20" height="68" rx="2" fill="#4ADE80"/>
    </g>
    <path d="M198 150 L262 150" stroke="#818CF8" stroke-width="3" fill="none" marker-end="url(#arrhd019)"/>
    <circle cx="312" cy="150" r="42" fill="#1E1B4B" stroke="#818CF8" stroke-width="2"/>
    <path d="M300 132 L300 158 L308 152 L314 166 L320 163 L314 150 L324 150 Z" fill="#E2E8F0"/>
    <text x="312" y="218" fill="#818CF8" font-size="18" font-weight="700" text-anchor="middle">1 click</text>
    <path d="M358 150 L410 150" stroke="#818CF8" stroke-width="3" fill="none" marker-end="url(#arrhd019)"/>
    <rect x="448" y="64" width="150" height="92" rx="8" fill="#1E293B" stroke="#475569"/>
    <rect x="438" y="84" width="150" height="92" rx="8" fill="#243042" stroke="#64748B"/>
    <rect x="428" y="104" width="150" height="92" rx="8" fill="#0B1220" stroke="#F97316" stroke-width="2"/>
    <text x="444" y="128" fill="#F97316" font-size="15" font-weight="700">Slide họp</text>
    <rect x="444" y="140" width="80" height="8" rx="4" fill="#475569"/>
    <g transform="translate(444,156)">
      <rect x="0" y="18" width="14" height="14" rx="2" fill="#64748B"/>
      <rect x="20" y="8" width="14" height="24" rx="2" fill="#818CF8"/>
      <rect x="40" y="0" width="14" height="32" rx="2" fill="#4ADE80"/>
    </g>
    <text x="503" y="232" fill="#94A3B8" font-size="18" font-weight="600" text-anchor="middle">PowerPoint</text>
  </g>
</svg>
